<svg width="24" height="24" viewBox="0 0 24 24" fill="none" xmlns="http://www.w3.org/2000/svg">
    <g clip-path="url(#clip0_63_668)">
        <path d="M20.4068 16.3467C19.3356 15.186 18.0356 14.2597 16.5888 13.6262C15.142 12.9927 13.5796 12.6656 12.0002 12.6656C10.4207 12.6656 8.85837 12.9927 7.41153 13.6262C5.9647 14.2597 4.66473 15.186 3.5935 16.3467C3.42811 16.5295 3.33559 16.7668 3.3335 17.0133V21.0133C3.337 21.2762 3.4439 21.5272 3.63106 21.7118C3.81822 21.8965 4.07057 22 4.3335 22H19.6668C19.932 22 20.1864 21.8946 20.3739 21.7071C20.5615 21.5196 20.6668 21.2652 20.6668 21V17C20.6615 16.758 20.5692 16.5261 20.4068 16.3467V16.3467Z" fill="white"/>
        <path d="M12.0002 11.3333C14.5775 11.3333 16.6668 9.244 16.6668 6.66667C16.6668 4.08934 14.5775 2 12.0002 2C9.42283 2 7.3335 4.08934 7.3335 6.66667C7.3335 9.244 9.42283 11.3333 12.0002 11.3333Z" fill="white"/>
    </g>
    <defs>
        <clipPath id="clip0_63_668">
            <rect width="24" height="24" fill="white"/>
        </clipPath>
    </defs>
</svg>