<svg xmlns="http://www.w3.org/2000/svg" width="2048" height="3413" fill="none">
  <g opacity=".1">
    <g opacity=".5">
      <g opacity=".5">
        <path
          fill="#211A19"
          d="M2047.27 3331.26H-.734V-233.739H2047.27V3331.26Z"
        />
        <path
          fill="#fff"
          d="M2047.27 3331.26-.734 2319.26V-233.739H2047.27V3331.26Z"
        />
        <path
          fill="#9F2D20"
          d="m2047.27 2465.26-2048.004 362V-233.739H2047.27V2465.26Z"
        />
        <path
          fill="#fff"
          d="M2047.27 1584.76-.734 2934.76V-233.739H2047.27V1584.76Z"
        />
        <path
          fill="#211A19"
          d="m2047.27 2335.76-2048.004-776V-233.739H2047.27V2335.76Z"
        />
        <path
          fill="#fff"
          d="m2047.27 1702.26-2048.004-334V-233.739H2047.27V1702.26Z"
        />
        <path
          fill="#211A19"
          d="M2047.27 1242.76-.734 927.761v-1161.5H2047.27V1242.76Z"
        />
        <path
          fill="#9F2D20"
          d="M2047.27 874.261-.734 1705.76V-233.739H2047.27v1108Z"
        />
        <path
          fill="#fff"
          d="M2047.27-193.239-.734 1331.26V-233.739H2047.27v40.5Z"
        />
        <path
          fill="#211A19"
          d="M2047.27 503.261-.734 675.761v-909.5H2047.27v737Z"
        />
        <path
          fill="#fff"
          d="M2047.27 464.261-.734 25.761v-259.5H2047.27v698Z"
        />
      </g>
      <g opacity=".5">
        <path fill="#211A19" d="M2047.27 3483.26H-.734v-3565H2047.27v3565Z" />
        <path
          fill="#fff"
          d="M2047.27 3483.26-.734 2471.26v-2553H2047.27v3565Z"
        />
        <path
          fill="#9F2D20"
          d="m2047.27 2617.26-2048.004 362v-3061H2047.27v2699Z"
        />
        <path
          fill="#fff"
          d="M2047.27 1736.76-.734 3086.76V-81.74H2047.27v1818.5Z"
        />
        <path
          fill="#211A19"
          d="m2047.27 2487.76-2048.004-776V-81.74H2047.27v2569.5Z"
        />
        <path
          fill="#fff"
          d="m2047.27 1854.26-2048.004-334v-1602H2047.27v1936Z"
        />
        <path
          fill="#211A19"
          d="m2047.27 1394.76-2048.004-315V-81.74H2047.27v1476.5Z"
        />
        <path
          fill="#9F2D20"
          d="M2047.27 1026.26-.734 1857.76V-81.74H2047.27v1108Z"
        />
        <path fill="#fff" d="M2047.27-41.24-.734 1483.26v-1565H2047.27v40.5Z" />
        <path
          fill="#211A19"
          d="M2047.27 655.261-.734 827.761v-909.5H2047.27v737Z"
        />
        <path
          fill="#fff"
          d="M2047.27 616.261-.734 177.761v-259.5H2047.27v698Z"
        />
      </g>
    </g>
    <g opacity=".5">
      <g opacity=".5">
        <path fill="#211A19" d="M-5-25.515h2058.53V3557.82H-5V-25.515Z" />
        <path fill="#fff" d="M-5-25.515 2053.53 991.69v2566.13H-5V-25.515Z" />
        <path
          fill="#9F2D20"
          d="m-5 844.939 2058.53-363.862V3557.82H-5V844.939Z"
        />
        <path fill="#fff" d="M-5 1729.97 2053.53 373.024V3557.82H-5V1729.97Z" />
        <path
          fill="#211A19"
          d="M-5 975.104 2053.53 1755.1v1802.72H-5V975.104Z"
        />
        <path fill="#fff" d="m-5 1611.86 2058.53 335.72v1610.24H-5V1611.86Z" />
        <path
          fill="#211A19"
          d="m-5 2073.73 2058.53 316.62v1167.47H-5V2073.73Z"
        />
        <path
          fill="#9F2D20"
          d="m-5 2444.12 2058.53-835.78v1949.48H-5v-1113.7Z"
        />
        <path fill="#fff" d="m-5 3517.11 2058.53-1532.34v1573.05H-5v-40.71Z" />
        <path
          fill="#211A19"
          d="m-5 2817.03 2058.53-173.39v914.18H-5v-740.79Z"
        />
        <path fill="#fff" d="m-5 2856.23 2058.53 440.75v260.84H-5v-701.59Z" />
      </g>
      <g opacity=".5">
        <path fill="#211A19" d="M-5-178.296h2058.53V3405.04H-5V-178.296Z" />
        <path
          fill="#fff"
          d="M-5-178.296 2053.53 838.908V3405.04H-5V-178.296Z"
        />
        <path
          fill="#9F2D20"
          d="m-5 692.157 2058.53-363.862V3405.04H-5V692.157Z"
        />
        <path fill="#fff" d="M-5 1577.18 2053.53 220.243V3405.04H-5V1577.18Z" />
        <path
          fill="#211A19"
          d="m-5 822.323 2058.53 779.987v1802.73H-5V822.323Z"
        />
        <path fill="#fff" d="m-5 1459.08 2058.53 335.72v1610.24H-5V1459.08Z" />
        <path
          fill="#211A19"
          d="m-5 1920.94 2058.53 316.62v1167.48H-5v-1484.1Z"
        />
        <path
          fill="#9F2D20"
          d="m-5 2291.34 2058.53-835.78v1949.48H-5v-1113.7Z"
        />
        <path fill="#fff" d="m-5 3364.33 2058.53-1532.34v1573.05H-5v-40.71Z" />
        <path
          fill="#211A19"
          d="m-5 2664.25 2058.53-173.39v914.18H-5v-740.79Z"
        />
        <path fill="#fff" d="m-5 2703.45 2058.53 440.75v260.84H-5v-701.59Z" />
      </g>
    </g>
  </g>
</svg>
