<svg xmlns="http://www.w3.org/2000/svg" width="24" height="24" fill="#FFF">
  <path
    d="M8 10.76h-.58a5.78 5.78 0 0 0-4.287 1.68l-.16.187v5.52h2.72v-3.134l.367-.413.166-.193a7.333 7.333 0 0 1 3.14-1.907A4.393 4.393 0 0 1 8 10.76ZM20.893 12.42a5.779 5.779 0 0 0-4.286-1.68c-.243 0-.485.014-.727.04a4.393 4.393 0 0 1-1.333 1.633 7.274 7.274 0 0 1 3.333 2l.167.187.36.413v3.14h2.627v-5.546l-.14-.187ZM7.4 9.46h.207A4.3 4.3 0 0 1 9.68 5.267a2.727 2.727 0 1 0-2.28 4.22V9.46ZM16.287 8.96c.008.153.008.307 0 .46.128.02.257.031.387.033h.126a2.727 2.727 0 1 0-2.487-4.12 4.353 4.353 0 0 1 1.974 3.627ZM11.913 11.947a2.98 2.98 0 1 0 0-5.96 2.98 2.98 0 0 0 0 5.96Z"
  />
  <path
    d="M12.073 13.533a6.46 6.46 0 0 0-4.74 1.8l-.167.187v4.22a1.047 1.047 0 0 0 1.067 1.027h7.66a1.047 1.047 0 0 0 1.067-1.027v-4.207l-.16-.2a6.386 6.386 0 0 0-4.727-1.8Z"
  />
</svg>
