<svg viewBox="0 0 300 350" width="150" height="175" xml:space="preserve" xmlns="http://www.w3.org/2000/svg"
     fill="#ffffff"><g transform="matrix(1.85755 0 0 1.85755 -35.7526 -10.9261)"><path d="m82.858 27.982c.057.134.115.269.173.393 1.017 2.158 2.878 4.24 2.878 4.24s.019-.009.029-.019h.009s.269-.201.806-.508c.182-.096.403-.211.642-.335.595-.298 1.353-.634 2.303-.969 2.235-.796 5.218-1.046 5.218-1.046s-2.782-3.856-3.3-9.439c-.297-3.156-.172-4.815-.134-4.912-.192-.009-.374-.028-.566-.028-2.11 0-4.048.739-5.564 1.967-.038.028-.077.057-.115.086-1.957 1.631-3.204 4.087-3.204 6.83 0 .767.106 1.506.288 2.215.143.451.336 1.026.537 1.525z"/><path
        d="m98.417 28.75c.566.614 1.132.883 1.641.883h.134c.518 0 1.084-.269 1.65-.883 1.247-1.209 2.561-3.242 3.444-5.708 1.276-3.578.902-6.6-.585-8.029-.739-.662-1.65-1.112-2.648-1.256-.23-.029-.604-.057-.988-.067 1.717-.432 3.003-1.976 3.003-3.837 0-2.197-1.775-3.971-3.971-3.971-2.197 0-3.971 1.775-3.971 3.971 0 1.861 1.276 3.405 3.002 3.837-.335.01-.69.038-.921.067-.998.144-1.909.595-2.647 1.256-1.487 1.43-1.861 4.451-.586 8.029.882 2.465 2.196 4.499 3.443 5.708z"/><path
        d="m136.337 55.043c.911 1.439.863 3.243.863 3.243.009.009 1.832.326 2.734 1.218 0 0 .144-.134.163-.163 1.228-1.516 3.501-4 4.154-7.597.537-2.936.192-7.051-.432-8.365-.019-.048-.038-.125-.067-.163.594-.681 1.563-2.264 4.249-2.264.988 0 1.87.269 2.58.614 1.18.566 1.909 1.314 1.909 1.314s-2.321 4.125-3.53 6.091c-.624 1.007-1.075 1.794-2.322 4.547-1.045 2.293-1.324 3.808-1.141 5.458.154 1.372.882 4.01 1.199 6.667.604 5.075-.393 7.559-.393 7.559s.019-.019.057-.038c-.01.019-.019.058-.019.058s6.024-3.981 9.823-12.864c-.01 0-.019 0-.038-.01h.009c-.71-.134-1.275-.326-1.775-.585-.508-.25-.95-.556-1.42-.921-3.377-2.571-2.619-5.315-1.515-6.6.307-.374.633-.729.969-1.084.844-.902 1.765-1.813 2.724-2.935 1.219-1.42 1.66-2.84 1.813-4.087.048-.432.115-.863.115-1.314 0-3.732-1.813-6.274-4.125-7.55-.767-.431-1.592-.719-2.417-.863-2.58-.442-5.746.528-8.058 2.101-.873.595-2.331 1.928-2.734 2.936-.508 2.513.249 3.156 1.007 5.755.019.058.048.096.067.154 1.585 5.784.769 8.585-4.449 9.688z"/><path
        d="m110.475 49.873c.681 1.439 1.928 2.839 1.928 2.839l.01-.009c.009.009.182.192.182.192s.681-.604 2.475-1.295c1.477-.576 3.377-.777 3.377-.777s-1.861-2.59-2.216-6.322c-.201-2.168-.105-3.281-.086-3.3h-.039v-.019c-.949-.163-1.928.028-2.829.451-.614.345-1.17.729-1.621 1.141-.806.71-1.343 1.516-1.554 2.369-.326.912-.442 1.918-.249 2.955.018.096.344 1.171.622 1.775z"/><path
        d="m118.725 46.045c.806 2.235 2.13 4.115 3.156 4.509.163.067.317.106.461.106 1.055-.125 2.465-2.264 3.146-4.883.633-2.456.201-4.508-.873-5.381-.24-.182-.508-.335-.796-.47-.288-.125-.595-.23-.912-.297-.048-.01-.096-.029-.144-.048.883-.432 1.477-1.401 1.42-2.504-.038-1.093-.71-2.005-1.611-2.369-.307-.125-.643-.192-.998-.182-1.353.067-2.408 1.295-2.34 2.753.057 1.103.739 2.024 1.65 2.369h.01c-.681.182-1.286.518-1.775.959-.999.958-1.248 3.05-.394 5.438z"/><path
        d="m125.977 50.621s3.175.02 6.331 1.257c.058.019.096.057.153.077.422-.537 1.036-1.391 1.448-2.264.279-.605.605-1.679.624-1.765.192-1.046.077-2.053-.249-2.964-.211-.863-.748-1.66-1.544-2.369-.461-.413-1.017-.796-1.631-1.141-.009 0-.019 0-.029-.01 0 0-.01-.009-.019-.009-.892-.422-1.871-.605-2.821-.451.02.019.115 1.141-.086 3.299-.355 3.732-2.216 6.321-2.216 6.321h.048z"/><path
        d="m105.343 29.738s2.974.25 5.218 1.046c.95.335 1.708.671 2.302.969.24.124.46.24.642.335.537.307.806.508.806.508h.01c.009.01.028.019.028.019s1.861-2.081 2.878-4.24c.058-.125.115-.259.163-.393.211-.499.403-1.075.547-1.525.182-.71.288-1.448.288-2.215 0-2.743-1.247-5.199-3.204-6.83-.038-.028-.077-.057-.115-.086-1.525-1.228-3.453-1.967-5.564-1.967-.192 0-.374.019-.566.028.038.096.163 1.755-.134 4.912-.527 5.582-3.299 9.439-3.299 9.439z"/><path
        d="m107.309 38.323s.345 1.737.557 2.523c.01-.009.211 0 .211.01 1.333-.528 3.923-1.305 3.923-2.178v-2.772c0-.509-.499-.979-1.4-1.391-1.832-.854-5.267-1.449-9.171-1.526h-2.273c-4.029.038-7.646.643-9.535 1.526-.892.412-1.42.882-1.42 1.391v2.772c0 .873 2.629 1.65 3.952 2.178 0-.01.211-.019.221-.01.211-.786.566-2.523.566-2.523s-.287-.115-.335-.23c-.163-.355.134-.556.623-.825.49-.269 1.295-.432 1.976-.461.422 1.535.479 3.924.393 5.976-.182 4.115-.959 9.286-3.406 12.807.931.902 1.947 2.072 3.002 3.568 2.533-4.854 2.926-10.168 3.147-15.636.086-2.408-.01-5.228 0-7.156.23 0 1.017-.096 1.794-.096s1.554.096 1.794.096c0 1.928-.096 4.748 0 7.156.211 5.574.605 10.974 3.262 15.895.959-1.401 1.909-2.542 2.782-3.435.057-.086.115-.163.182-.249-2.513-3.52-3.309-8.777-3.492-12.95-.086-2.053-.029-4.441.393-5.976.681.029 1.487.192 1.976.461s.786.47.623.825c-.057.115-.345.23-.345.23z"/><path
        d="m141.431 77.202c-.019 0-.019-.019-.038-.019-.038-.01-.077-.02-.115-.01h-.067c-.144.019-.279.029-.413.048-1.448.086-2.858-.019-4.02-.48-.662-.211-1.228-.585-1.775-.978-.134-.106-1.602-1.41-1.871-1.65-1.065-.998-3.079-2.466-5.16-2.667-2.351-.24-3.856.623-5.535 1.285-.153.067-.278.22-.288.393-.009.201.106.374.269.451.057.028.125.057.201.057 1.66.125 3.252.403 4.758.844 1.113.345 2.225.7 3.098 1.324 1.151.815 2.149 1.861 2.811 2.283.863.547 1.631 1.075 2.609 1.267 1.036.182 2.12.105 3.128-.154.048-.019.096-.029.134-.048.269-.058.528-.163.787-.259.355-.144.691-.297 1.017-.489.009 0 .019-.01.038-.019.201-.125.422-.221.614-.364 0-.01.01-.01.019-.01.115-.096.192-.249.173-.412-.01-.201-.173-.364-.374-.393z"/><path
        d="m134.975 61.691c.106.326.461.681.863.911 1.247.729 1.698 1.804-.182 2.024-1.372.163-2.791-.748-7.856.633-2.964.815-6.465 3.818-7.683 5.199-.374.422-.758.921-1.123 1.439-1.17 1.698-1.16 3.981.106 5.602.758.969 1.602 1.592 1.852 1.765 4.441 3.002 8.614.518 9.065.057.365-.364.384-.508.316-.595-.009-.019-.019-.009-.028-.019h-.01c-.009-.019-1.41.739-3.377.739-1.122 0-2.264-.192-3.213-.624-.7-.316-2.302-1.17-3.252-2.686-.614-.988-.489-2.254.259-3.147.748-.892 1.65-1.736 2.495-2.359 1.909-1.41 4.096-2.254 6.638-2.293.057 0 .115-.01.182-.01 1.276 0 2.494.221 3.655.605.576.191 1.141.422 1.679.7 1.621.835 3.041 2.034 4.115 3.492l.009-.01.029.029c.413-.71.883-1.765 1.275-3.252.077-.259.144-.528.211-.815.556-2.485.393-8.269-5.104-8.269-.096 0-.201.048-.297.077-.586.154-.73.471-.624.807z"/><path
        d="m44.66 48.223c.959 1.122 1.88 2.033 2.724 2.935.335.355.652.71.969 1.084 1.094 1.285 1.852 4.029-1.516 6.6-.47.364-.911.671-1.419.921-.499.259-1.065.451-1.775.585h.01c-.019.01-.029.01-.048.01 3.808 8.883 9.833 12.864 9.833 12.864s-.01-.038-.019-.058c.038.019.057.038.057.038s-.998-2.485-.394-7.559c.317-2.657 1.046-5.295 1.199-6.667.182-1.65-.096-3.165-1.142-5.458-1.247-2.753-1.698-3.54-2.321-4.547-1.209-1.966-3.53-6.091-3.53-6.091s.72-.749 1.899-1.314c.72-.345 1.602-.614 2.59-.614 2.686 0 3.655 1.583 4.249 2.264-.028.038-.048.116-.067.163-.624 1.314-.969 5.43-.432 8.365.652 3.597 2.926 6.081 4.154 7.597.019.029.163.163.163.163.892-.892 2.724-1.209 2.734-1.218 0 0-.048-1.804.863-3.243-5.218-1.103-6.034-3.904-4.451-9.688.019-.057.048-.096.067-.154.758-2.6 1.516-3.242 1.007-5.755-.403-1.007-1.861-2.341-2.734-2.936-2.312-1.573-5.477-2.542-8.058-2.101-.834.144-1.65.432-2.417.863-2.312 1.276-4.125 3.818-4.125 7.55 0 .451.057.882.115 1.314.155 1.247.597 2.667 1.815 4.087z"/><path
        d="m81.333 50.822s1.889.201 3.377.777c1.794.691 2.475 1.295 2.475 1.295s.172-.182.182-.192l.009.009s1.247-1.4 1.928-2.839c.279-.604.605-1.679.624-1.775.192-1.036.077-2.043-.25-2.955-.211-.854-.748-1.66-1.554-2.369-.461-.413-1.007-.796-1.631-1.141-.892-.422-1.87-.614-2.82-.451v.019h-.038c.019.019.115 1.132-.096 3.3-.345 3.732-2.206 6.322-2.206 6.322z"/><path
        d="m77.438 50.659c.144 0 .297-.039.451-.106 1.036-.393 2.36-2.273 3.165-4.509.854-2.388.605-4.48-.393-5.439-.498-.442-1.093-.777-1.774-.959.921-.345 1.602-1.266 1.66-2.369.058-1.458-.988-2.686-2.341-2.753-.355-.009-.69.057-.997.182-.902.364-1.573 1.276-1.621 2.369-.048 1.103.547 2.072 1.43 2.504-.048.019-.096.038-.144.048-.326.067-.624.172-.912.297-.288.135-.557.288-.796.47-1.074.873-1.516 2.926-.873 5.381.68 2.62 2.09 4.76 3.145 4.884z"/><path
        d="m65.869 49.69c.412.873 1.026 1.727 1.449 2.264.058-.019.096-.057.153-.077 3.156-1.237 6.322-1.257 6.322-1.257l-.009-.019h.048s-1.851-2.59-2.206-6.321c-.201-2.158-.115-3.28-.087-3.299-.949-.154-1.928.028-2.829.451l-.01.009c-.01.01-.019.01-.029.01-.614.345-1.17.729-1.631 1.141-.796.71-1.333 1.506-1.544 2.369-.326.912-.441 1.918-.249 2.964.018.087.344 1.161.622 1.765z"/><path
        d="m77.16 73.634c.077 0 .144-.029.201-.057.163-.077.278-.25.269-.451-.01-.173-.135-.326-.288-.393-1.689-.662-3.185-1.525-5.535-1.285-2.081.201-4.096 1.669-5.161 2.667-.269.24-1.736 1.544-1.87 1.65-.547.393-1.122.767-1.775.978-1.17.461-2.571.566-4.019.48-.135-.019-.269-.029-.413-.048h-.067c-.038-.01-.077 0-.115.01-.019 0-.019.019-.038.019-.201.028-.364.191-.384.393-.01.163.058.317.182.412.009 0 .009 0 .019.01.192.144.413.24.614.364.019.009.028.019.038.019.316.192.662.345 1.017.489.259.096.508.201.777.259.048.019.096.029.144.048 1.007.259 2.081.336 3.127.154.979-.192 1.746-.719 2.609-1.267.662-.422 1.65-1.468 2.81-2.283.873-.624 1.976-.978 3.099-1.324 1.507-.442 3.1-.72 4.759-.844z"/><path
        d="m58.78 69.077c.067.288.134.556.211.815.393 1.487.863 2.542 1.276 3.252l.029-.029.009.01c1.075-1.458 2.485-2.657 4.115-3.492.537-.278 1.103-.508 1.679-.7 1.151-.384 2.379-.605 3.655-.605.067 0 .125.01.183.01 2.542.038 4.729.883 6.638 2.293.844.623 1.746 1.467 2.494 2.359.739.892.873 2.159.259 3.147-.95 1.516-2.552 2.369-3.252 2.686-.95.432-2.091.624-3.214.624-1.967 0-3.367-.758-3.377-.739h-.01c-.009.01-.019 0-.029.019-.077.086-.048.23.317.595.451.46 4.624 2.945 9.065-.057.249-.173 1.094-.796 1.842-1.765 1.276-1.621 1.285-3.904.115-5.602-.364-.518-.748-1.017-1.132-1.439-1.209-1.381-4.71-4.384-7.674-5.199-5.065-1.381-6.494-.47-7.856-.633-1.88-.22-1.439-1.295-.182-2.024.403-.23.757-.585.863-.911.106-.336-.038-.653-.623-.806-.096-.029-.201-.077-.298-.077-5.496-.001-5.659 5.784-5.103 8.268z"/><path
        d="m125.641 153.847.009.057c.01 0 .019.01.029 0-.009-.019-.019-.038-.038-.057z"/><path
        d="m103.012 97.826c.182.364.902.94 1.056 2.062.019.115 2.772-2.926 2.772-2.926v-2.926l-2.935 1.247z"/><path
        d="m85.055 174.51c1.333-.355 2.551-.758 3.837-1.257.633-.25 1.276-.528 1.909-.844.643-.326 1.276-.7 1.89-1.132.604-.422 1.17-.96 1.65-1.564.24-.298.441-.633.614-.988.086-.182.173-.384.23-.557l.125-.479v-.019c.086-.345-.125-.7-.47-.787-.135-.029-.269-.009-.384.029s-.22.106-.307.201c-.403.47-.834.796-1.295 1.046-.461.249-.95.422-1.477.585-1.075.307-2.254.47-3.463.633-1.19.154-2.484.279-3.674.393-1.19.115-2.389.173-3.617.221l-3.808.115c-1.314.077-2.695.144-4.269.508-.595.144-1.247.316-1.909.633-.221.106-.451.221-.671.364-.863.537-1.726 1.41-2.149 2.427-.441 1.017-.499 2.024-.326 2.878.201.863.547 1.602 1.17 2.254.25.249.614.316.93.182.096-.038.374-.279.374-.279 1.094-1.765 3.434-2.714 3.895-2.82 1.889-.451 4.595-.566 7.204-.949 1.324-.19 2.657-.439 3.991-.794z"/><path
        d="m73.141 167.191c-.029.355.24.662.585.681.154.009.288-.029.403-.106l.019-.019h.009l.211-.144c.297-.201.604-.364.911-.508.94-.422 1.881-.576 2.811-.595 1.276-.048 2.571.115 4.067.384 1.612.288 3.425.412 5.19.278.892-.067 1.794-.24 2.715-.489.461-.154.921-.307 1.401-.557 0-.01.009-.01.009-.01.01 0 .019-.009.029-.009.432-.25 1.036-.566 1.343-1.238.125-.259.01-.566-.259-.681-.038-.019-.077-.038-.115-.038 0 0-1.794-.336-2.522-.547l-2.273-.585c-1.554-.384-3.041-.72-4.71-.998-1.774-.307-3.885-.297-5.852.47-.25.096-.489.211-.729.336-1.68.854-3.109 2.408-3.243 4.375z"/><path
        d="m75.702 160.898c.086-.019 1.132-.393 1.621-.556h-.01c.019-.01-6.149-2.235-2.648-6.207l.01-.153c-.01.009-.019-.029-.029-.019-.585-.077-1.18-.019-1.726.201-.556.221-1.036.585-1.439 1.084-1.669 2.072.624 4.326.681 4.374-.336-.029-1.161-.153-1.506-.192-1.487-1.017-3.962-3.53-.412-8.844-.096-.01-.183-.01-.269-.019-.518-.029-1.017.067-1.487.278-.278.096-.547.201-.796.326-1.746.854-2.935 2.504-2.935 4.413 0 .787.211 1.516.566 2.178.259.48.595.902.997 1.285-.259-.029-1.391-.096-1.66-.172-1.621-1.871-3.415-5.362.048-9.449-.096-.009-.182-.019-.269-.019-.518-.029-1.017.077-1.487.278-.317.115-.604.249-.882.413-1.909 1.093-2.849 3.185-2.849 4.911 0 .786.278 2.053.566 2.753 2.274 5.563 13.008 3.875 15.915 3.136z"/><path
        d="m130.313 171.613c-.22-.144-.451-.259-.671-.364-.662-.317-1.314-.489-1.909-.633-1.582-.364-2.954-.432-4.278-.508l-3.799-.115c-1.228-.048-2.437-.105-3.626-.221-1.18-.115-2.475-.24-3.664-.393-1.209-.163-2.388-.326-3.463-.633-.527-.163-1.017-.335-1.477-.585-.47-.25-.902-.576-1.305-1.046-.077-.096-.182-.163-.297-.201-.125-.038-.25-.057-.384-.029-.355.086-.566.441-.48.787l.01.019.115.479c.067.173.154.374.24.557.173.355.365.69.614.988.48.604 1.036 1.141 1.65 1.564.614.431 1.247.805 1.889 1.132.633.317 1.266.595 1.909.844 1.285.499 2.494.902 3.827 1.257s2.676.604 4 .796c2.6.384 5.314.499 7.204.949.451.106 2.801 1.055 3.894 2.82 0 0 .269.24.374.279.316.134.681.067.93-.182.614-.652.969-1.391 1.161-2.254.182-.854.125-1.861-.317-2.878-.421-1.019-1.284-1.892-2.147-2.429z"/><path
        d="m108.777 166.097s.019.009.029.009h.01c.47.259.94.413 1.4.566.911.249 1.823.422 2.715.489 1.755.134 3.578.009 5.189-.278 1.497-.269 2.792-.432 4.067-.384.931.019 1.871.173 2.811.595.307.144.604.307.911.508l.202.144h.009l.029.019c.115.077.249.115.403.106.345-.019.614-.326.585-.681-.134-1.967-1.573-3.521-3.242-4.374-.24-.125-.489-.24-.729-.336-1.966-.767-4.076-.777-5.852-.47-1.669.278-3.156.614-4.71.998l-2.283.585c-.729.211-2.513.547-2.513.547-.038 0-.086.019-.125.038-.259.115-.374.422-.259.681.308.672.922.989 1.353 1.238z"/><path
        d="m138.198 150.097c-.269-.163-.556-.298-.873-.413-.47-.201-.979-.307-1.487-.278-.087 0-.182.01-.269.019 3.463 4.087 1.669 7.578.048 9.449-.269.077-1.401.144-1.669.172.403-.384.748-.805 1.007-1.285.345-.662.566-1.391.566-2.178 0-1.909-1.19-3.559-2.936-4.413-.259-.125-.518-.23-.796-.326-.47-.211-.978-.307-1.487-.278-.087.009-.182.009-.269.019 3.549 5.314 1.074 7.827-.413 8.844-.345.039-1.17.163-1.516.192.067-.048 2.36-2.302.69-4.374-.403-.499-.892-.863-1.438-1.084-.547-.22-1.142-.278-1.727-.201-.01-.01-.019.029-.029.019l.01.153c3.501 3.971-2.667 6.197-2.648 6.207h-.009c.489.163 1.535.537 1.621.556 2.897.739 13.641 2.427 15.914-3.137.278-.7.566-1.967.566-2.753.002-1.726-.938-3.817-2.856-4.91z"/><path
        d="m110.149 133.779c-.058-.077-.25-.115-.25-.115-.087-.02-.182-.01-.259.029-.518.317-.844.662-1.142 1.017-.259.346-.479.71-.614 1.075-.134.364-.24.739-.163 1.132.096.393.288.805.834 1.256.125.106.595.278.921.173.672-.221 1.007-.527 1.247-.863.221-.336.259-.72.269-1.113.019-.384-.048-.796-.163-1.218-.143-.442-.315-.883-.68-1.373z"/><path
        d="m111.041 111.879c-.01-.009-.019-.019-.019-.029l-.182.115c-.768.335-1.516.815-2.254 1.429-2.983 2.532-5.564 7.262-6.686 12.931-1.075 5.43-.576 10.466 1.065 13.823 1.093 2.225 2.686 3.722 4.662 4.057 1.947.326 3.971-.508 5.823-2.177 2.868-2.59 5.315-7.176 6.399-12.662 1.112-5.602.547-10.811-1.228-14.149-1.084-2.053-2.619-3.415-4.509-3.732-1.009-.171-2.044-.018-3.071.394zm-6.36 14.716c.067-.384.316-1.496.393-1.861.019.019.249.595.825.988.681.46 1.103.479 1.439.527 0 0-.489-.7-.614-1.602-.154-1.151.384-2.072.384-2.072.278.461 1.66 3.818 2.197 4.931-.096.298-.182.605-.249.94-.038.182-.058.355-.077.537-.019.106-.038.201-.048.298-.086.086-3.856 4.662-4.748 5.573-.519-3.118.095-5.967.498-8.259zm3.665 14.753c-1.276-.163-1.986-.902-2.398-1.391-1.17-1.362-1.304-2.667-1.314-2.676l4.547-5.544c.24.69.748.93.883.949.009 0 .009.01.019.01.422.086.863-.163 1.276-.624.115.288 2.753 5.152 2.859 5.228-1.652 2.695-4.165 4.269-5.872 4.048zm8.892-11.857c-.192 1.084-.384 1.852-.691 2.83-.24.758-.671 1.852-.988 2.532-.623-.835-1.813-2.829-3.05-5.103.048-.192.105-.393.144-.595.077-.413.125-.815.144-1.189 1.276-1.257 2.485-2.724 3.76-4.163 0 0 .586.576.374 1.602-.192.959-1.074 1.564-1.074 1.564.825.019 1.161.057 1.899-.259-.086.748-.384 2.004-.518 2.781zm-1.688-13.957c.22.202.422.442.623.7.077.125.125.201.182.317.077.144.154.288.23.441.413.863.671 1.755.873 2.801-.182-.067-.345-.086-.556-.086-2.494-.067-3.876 1.352-4.298 3.578 0 0 .796-.605 1.467-.777.595-.144 1.429-.038 1.429-.038-.94 1.141-1.947 2.244-2.993 3.328-.201-.499-.508-.825-.883-.902-.412-.077-.844.153-1.237.585-.422-.94-1.382-3.299-1.583-3.856 0 0 .729-.067 1.333.211.671.307 1.333 1.161 1.333 1.161.106-.547 0-1.602-.192-2.187-.393-1.209-1.285-1.976-2.753-2.168-.298-.029-.576-.019-.863.019 1.122-1.737 2.417-3.012 3.722-3.645-.362 2.744 3.398 3.3 4.166.518z"/><path
        d="m180.674 99.601c-.144-.499-.489-.883-.921-1.103-.413-.23-.921-.307-1.41-.154l-.087.02c-2.13.633-4.355 1.304-6.542 1.803-1.103.278-2.187.537-3.281.777-1.084.23-2.158.413-3.338.576-2.293.298-4.595.556-6.897.758-1.468.125-2.984.22-4.451.288.211-.058.422-.106.643-.172.633-.173 1.266-.355 1.889-.547 1.238-.393 2.456-.805 3.664-1.247 2.408-.883 4.748-1.842 7.089-2.868 2.331-.998 4.787-2.139 6.945-3.53 2.188-1.439 4.231-2.945 6.149-4.816.585-.576.739-1.496.307-2.244-.192-.336-.48-.585-.806-.739-.537-.269-1.199-.278-1.755.048l-.077.048c-2.015 1.161-4.154 2.36-6.283 3.386-2.158 1.055-4.211 2.062-6.513 2.849-2.274.796-4.605 1.544-6.926 2.187-1.161.326-2.322.623-3.473.892l-.767.163c.585-.25 1.151-.508 1.707-.777 1.257-.614 2.465-1.266 3.645-1.938 2.36-1.362 4.614-2.82 6.82-4.326 2.254-1.525 4.509-3.185 6.475-5.075 1.957-1.928 3.76-3.904 5.343-6.235.46-.691.422-1.64-.164-2.283-.182-.192-.384-.336-.614-.432-.652-.317-1.458-.23-2.033.297l-.067.057c-1.813 1.65-3.76 3.348-5.736 4.845-1.995 1.535-3.942 3.031-6.12 4.278-.403.24-.825.461-1.228.691-1.813 1.027-3.645 2.014-5.487 2.907-.365.172-.719.336-1.075.499-.671.307-1.353.595-2.024.873.125-.086.249-.163.374-.25.786-.556 1.535-1.141 2.264-1.727.403-.326.806-.652 1.199-.988 2.158-1.842 4.182-3.78 6.11-5.756.029-.029.057-.048.077-.077 2.053-2.082 3.971-4.24 5.602-6.61 1.602-2.398 3.041-4.815 4.163-7.568.317-.777.067-1.698-.643-2.196-.009-.01-.029-.01-.038-.019-.835-.595-1.986-.393-2.571.441l-.057.077c-1.477 2.101-3.108 4.269-4.825 6.255-.509.604-1.027 1.199-1.545 1.794-1.209 1.382-2.456 2.724-3.818 3.923-.672.595-1.362 1.17-2.053 1.756-1.238 1.045-2.494 2.072-3.77 3.031.192-.259.393-.518.585-.777 1.065-1.458 2.034-2.935 2.974-4.422.643-1.036 1.276-2.072 1.89-3.117 1.074-1.813 2.062-3.664 2.916-5.573.384-.854.749-1.717 1.065-2.59 1.026-2.859 1.852-5.698 2.283-8.787.125-.844-.364-1.688-1.199-1.986l-.019-.009c-.009 0-.009-.01-.028-.01-.95-.345-2.005.154-2.35 1.113l-.029.096c-.777 2.187-1.717 4.441-2.724 6.619-.163.345-.307.7-.47 1.045-1.151 2.351-2.341 4.672-3.741 6.85-.077.125-.154.259-.24.393-1.046 1.535-2.14 3.021-3.252 4.48-3.443 3.837-9.257 7.674-12.393 9.209-1.535.739-3.089 1.755-4.662 2.523-.019.01-.048.029-.067.038-1.055.509-1.967 1.333-2.503 2.379-.135.259-.24.547-.336.825-.163.508-.269 1.046-.269 1.611 0 2.005 1.094 3.933 2.743 4.797.547.297 1.151.47 1.804.489.106 0 .192-.01.288-.019.566-.057.873-.307.873-.307s-.441-1.18.23-1.708c.115-.077.23-.144.355-.192.316-.144.652-.221 1.017-.221.345 0 .662.067.959.183.873.393 1.487 1.256 1.487 2.273 0 1.257-.94 2.283-2.149 2.446-.556.221-1.611.25-2.283.25-1.391 0-2.753-.144-4.067-.384-1.813-.336-3.549-.911-5.161-1.65-1.966-.902-5.574-3.54-5.516-3.693-3.712-3.444-6.053-8.173-6.254-13.411-.01-.24-.038-.48-.038-.719 0-.758.048-1.573.144-2.302.144-1.295.441-2.561.844-3.789.719-2.187 1.823-4.24 3.223-6.005.144-.172.777-.873 1.592-1.679.048-.048.106-.096.154-.144.009-.009.009-.019.019-.029.911-.892 2.005-1.89 2.945-2.494 0 0-.01 0-.01-.009h.01c-.057-.038-.163-.135-.269-.23-.125-.125-.24-.249-.307-.326-1.708-.163-2.312-.978-2.6-1.66-.009-.028-.019-.048-.029-.067-.019-.057-.048-.115-.067-.163-.086-.259-.086-1.036-.048-1.141.125-.633.508-1.256.825-1.563.153-.173.316-.326.479-.451.518-.403 1.103-.614 1.727-.739.153-.029.307-.057.46-.077.029 0 .048-.01.067-.01 1.583-.163 3.146.518 3.78 2.139v.01c-.086.067-.998.24-.998.24h-.009c-.326-.7-.864-.988-1.496-.94-.211.01-.432.067-.662.154-.153.057-.278.134-.384.23-1.017.863-.125 3.06 1.295 3.214.211.019.451-.009.69-.096.009 0 .019-.009.029-.009.614-.25 4.547-1.19 6.916-1.564.451-.067.854-.125 1.161-.144 0 0 .019-.01.029-.019h.01c.403-.671.422-5.036-3.021-6.465-2.715-1.122-5.084-1.305-7.214-1.305-1.938-.01-3.703.192-5.506.595-7.003 1.535-11.271 5.592-15.175 14.369-2.638 5.19-3.588 10.169-3.971 11.54 0 0-.144 0-.393.01-.393-1.477-1.343-6.427-3.942-11.54-3.905-8.777-8.192-12.835-15.195-14.379-1.803-.393-3.588-.595-5.525-.595-2.139.009-4.499.192-7.223 1.314-3.444 1.42-3.425 5.794-3.012 6.456.01.009.019.009.029.019.297.019.7.077 1.16.144 2.369.374 6.302 1.314 6.916 1.564.01 0 .019.009.029.009.24.086.47.115.69.096 1.554-.172 2.485-2.82.921-3.434-.23-.096-.451-.144-.662-.163-.633-.048-1.18.25-1.506.94 0 0-.969-.172-1.017-.23l.009-.02c.633-1.621 2.197-2.302 3.78-2.139.019 0 .038.01.058.01.163.019.316.048.47.077.825.163 1.592.499 2.206 1.199.326.307.71.931.834 1.564.029.106.038.883-.057 1.141-.01.048-.038.106-.058.163-.01.019-.019.038-.029.057-.288.691-.892 1.506-2.6 1.669-.067.077-.191.201-.307.316-.106.106-.211.192-.278.24.998.653 2.177 1.737 3.117 2.667.825.815 1.458 1.516 1.593 1.688 1.41 1.765 2.503 3.818 3.233 6.005.403 1.228.69 2.504.844 3.789.086.729.144 1.564.144 2.312 0 .24-.029.499-.038.739-.019.432-.057.864-.096 1.295-.47 2.196-1.448 5.755-3.262 8.767-.086.135-.182.279-.278.413h.029c-.691 1.084-1.497 2.081-2.437 2.897.057.153-3.549 2.791-5.506 3.693-1.621.739-3.348 1.314-5.161 1.65-1.324.24-2.686.384-4.077.384-.671 0-1.727-.029-2.274-.25-1.218-.163-2.158-1.189-2.158-2.446 0-1.017.614-1.88 1.487-2.273.297-.115.624-.183.959-.183.364 0 .71.077 1.017.221.125.048.24.115.355.192.671.528.23 1.708.23 1.708s.316.25.883.307c.086.009.172.019.278.019.652-.019 1.266-.192 1.813-.489 1.64-.863 2.734-2.792 2.734-4.797 0-.566-.106-1.103-.269-1.611-.096-.278-.201-.566-.336-.825-.537-1.046-1.439-1.87-2.494-2.379-.029-.009-.048-.028-.077-.038-1.564-.767-3.127-1.784-4.653-2.523-3.146-1.535-8.95-5.372-12.393-9.209-1.122-1.458-2.216-2.945-3.262-4.48-.077-.135-.153-.269-.24-.393-1.391-2.178-2.59-4.499-3.732-6.85-.172-.345-.307-.7-.47-1.045-1.017-2.178-1.957-4.432-2.734-6.619l-.029-.096c-.335-.959-1.391-1.458-2.35-1.113-.009 0-.019.01-.028.01 0 0-.01 0-.01.009-.844.298-1.324 1.141-1.209 1.986.442 3.089 1.266 5.928 2.283 8.787.326.873.691 1.736 1.074 2.59.854 1.909 1.832 3.76 2.916 5.573.614 1.046 1.237 2.081 1.889 3.117.931 1.487 1.909 2.965 2.964 4.422.192.259.393.518.595.777-1.285-.959-2.532-1.986-3.779-3.031-.691-.586-1.372-1.161-2.053-1.756-1.352-1.199-2.6-2.542-3.818-3.923-.518-.595-1.036-1.19-1.545-1.794-1.717-1.986-3.348-4.154-4.825-6.255l-.057-.077c-.585-.835-1.736-1.036-2.571-.441-.01.009-.019.009-.029.019-.719.499-.969 1.419-.652 2.196 1.132 2.753 2.561 5.171 4.173 7.568 1.631 2.37 3.549 4.528 5.593 6.61.028.029.057.048.077.077 1.938 1.976 3.952 3.914 6.12 5.756.393.336.796.662 1.199.988.729.586 1.468 1.17 2.264 1.727.115.086.24.163.364.25-.671-.279-1.343-.566-2.015-.873-.365-.163-.719-.326-1.074-.499-1.852-.892-3.674-1.88-5.487-2.907-.413-.23-.825-.451-1.238-.691-2.177-1.247-4.125-2.743-6.11-4.278-1.986-1.497-3.933-3.194-5.746-4.845l-.067-.057c-.566-.527-1.372-.614-2.034-.297-.22.096-.431.24-.604.432-.585.642-.633 1.592-.163 2.283 1.583 2.331 3.386 4.307 5.343 6.235 1.957 1.89 4.211 3.549 6.475 5.075 2.207 1.506 4.461 2.964 6.811 4.326 1.189.671 2.388 1.324 3.655 1.938.547.269 1.122.527 1.708.777l-.777-.163c-1.151-.269-2.312-.566-3.473-.892-2.312-.643-4.643-1.391-6.926-2.187-2.303-.787-4.346-1.794-6.504-2.849-2.13-1.026-4.269-2.225-6.293-3.386l-.077-.048c-.557-.326-1.209-.317-1.746-.048-.326.154-.614.403-.806.739-.441.748-.287 1.669.307 2.244 1.909 1.871 3.962 3.377 6.139 4.816 2.168 1.391 4.614 2.532 6.955 3.53 2.331 1.026 4.671 1.986 7.089 2.868 1.199.442 2.417.854 3.664 1.247.624.192 1.247.374 1.89.547.221.067.432.115.642.172-1.477-.067-2.983-.163-4.46-.288-2.293-.201-4.604-.46-6.897-.758-1.18-.163-2.244-.345-3.338-.576-1.084-.24-2.178-.499-3.271-.777-2.187-.499-4.422-1.17-6.551-1.803l-.077-.02c-.499-.153-.998-.077-1.419.154-.422.22-.768.604-.921 1.103-.24.815.106 1.669.805 2.101 2.159 1.333 4.355 2.302 6.658 3.204 2.283.873 4.816 1.429 7.137 1.909 2.35.508 4.71.969 7.089 1.372 2.139.355 4.221.662 6.456.892-1.362.163-2.724.316-4.096.46-2.188.211-4.394.393-6.59.537-.547.038-1.084.057-1.65.077l-1.583.029-3.185-.058c-2.139-.029-4.346-.182-6.465-.298h-.067c-.384-.019-.748.077-1.055.259-.528.307-.902.854-.931 1.506-.048.844.48 1.583 1.247 1.852 2.254.777 4.48 1.237 6.792 1.612 1.161.172 2.321.278 3.501.326.585.029 1.18.038 1.775.048l1.698.028c2.264.048 4.537.058 6.801.029 1.574-.019 1.909-.019 3.492-.077l.201.681c-2.59.815-4.365 1.353-6.974 2.082-2.043.575-3.971.949-5.976 1.362-1.986.451-4.048.806-6.053 1.218l-.048.02c-.135.028-.269.077-.393.124-.796.336-1.266 1.199-1.084 2.072.163.825.854 1.41 1.65 1.477 2.226.201 4.375.144 6.581 0 2.187-.144 4.403-.643 6.485-1.026 2.101-.394 5.199-1.122 7.281-1.563l.163.527c-.863.499-2.743 1.496-3.606 1.976-.873.48-1.737.912-2.6 1.343-.863.412-1.727.825-2.58 1.256h-.01c-.009.01-.019.01-.028.019-1.737.892-3.53 1.755-5.267 2.686l-.029.019c-.902.489-1.237 1.611-.748 2.513.393.729 1.209 1.094 1.986.94 2.043-.393 3.981-.968 5.947-1.602 1.947-.653 3.837-1.554 5.698-2.37.489-.211 2.427-1.046 2.926-1.266l.326 1.545c-.298.211-1.382.969-1.391.978l-2.139 1.851c-1.41 1.267-2.734 2.638-3.981 4.096-.671.796-.576 1.967.211 2.638.595.509 1.419.576 2.072.23.01 0 .019-.009.029-.009l.009-.01c1.717-.892 3.338-1.89 4.883-2.993l1.631-.949c.01.029.902 5.391 1.132 7.607.729 6.916.518 14.878 1.266 15.809.624.777 1.871.604 2.983.633-.077-.259-.115-.509-.172-.768 0-.019.009-.048 0-.077-.796-3.703.307-6.446.988-7.559.01-.019.01-.038.019-.057.01-.029.077-.249.077-.297-.25-4.403-.835-11.502-1.832-17.008-1.583-8.787-4.24-22.859-4.998-26.841-.048-.24.039-.451.183-.604.172-.144.403-.221.652-.163 2.695.681 7.118 1.084 9.976 1.266 2.139.144 7.233.134 12.49-1.477-2.225 5.247-3.501 11.271-3.501 17.67 0 12.557 4.873 23.656 12.298 30.312-.883.135-1.535.259-1.717.326-1.909.672-3.406 1.631-4.249 2.12-.02.009-.039.029-.048.048-.057.02-.125.048-.173.077-.288.163-.307.489-.24.815.201.902.7 2.034 1.199 2.705.106.153.211.297.393.307 6.945.345 12.048.873 16.135 3.463.019.01.038.02.057.039.106.067.211.153.326.23 1.928 1.516 2.705 4.662 1.132 6.907-.547.557-1.103 1.103-1.669 1.611-1.899 1.64-3.962 3.041-6.13 4.086-2.168 1.055-4.432 1.708-6.725 2.044-2.312.422-4.624.729-7.635 1.439l-.02.01c-.096.019-.191.067-.268.125-.25.163-.384.46-.317.767.038.125.096.24.182.336 2.216 2.389 5.487 3.328 8.633 3.156 2.389-.183 4.71-.873 6.821-1.881.71-.345 1.401-.719 2.062-1.122 2.629-1.621 4.883-3.741 6.59-6.225.038-.058.067-.106.106-.163-.009.029-.019.058-.019.086-.393 1.343-1.679 4.883-2.705 6.063-1.036 1.199-1.986 2.341-3.089 3.243-.825.671-1.679 1.237-2.638 1.726-.317.154-.643.298-.978.432-1.382.576-2.974.95-4.844 1.353h-.02c-.096.029-.182.067-.249.115-.24.154-.384.432-.317.729.038.172.135.316.269.413 1.66 1.18 3.76 1.736 5.938 1.602 1.103-.067 2.197-.326 3.242-.758 1.026-.412 1.995-.997 2.84-1.698.288-.23.508-.489.767-.748.48.949.988 1.909 1.353 2.858.489 1.132.873 2.273 1.497 3.406.134.259.451.374.566.355 0 .02.489-.096.633-.355.624-1.132 1.065-2.273 1.545-3.406.374-.949.883-1.909 1.362-2.858.25.259.48.518.758.748.854.7 1.823 1.286 2.849 1.698 1.036.432 2.139.691 3.233.758 2.178.134 4.278-.422 5.938-1.602.134-.096.24-.24.278-.413.058-.298-.077-.576-.316-.729-.077-.048-.163-.086-.259-.115h-.009c-1.871-.403-3.463-.777-4.854-1.353-.335-.134-.662-.278-.969-.432-.959-.489-1.822-1.055-2.647-1.726-1.094-.902-2.043-2.044-3.089-3.243-1.026-1.18-2.312-4.719-2.695-6.063-.01-.028-.02-.057-.02-.086.029.058.067.106.096.163 1.707 2.484 3.971 4.605 6.6 6.225.662.403 1.343.777 2.053 1.122 2.12 1.007 4.432 1.698 6.82 1.881 3.156.172 6.427-.768 8.643-3.156.077-.096.144-.211.173-.336.077-.307-.067-.604-.317-.767-.077-.057-.163-.106-.269-.125l-.009-.01c-3.021-.71-5.324-1.017-7.636-1.439-2.293-.336-4.566-.988-6.734-2.044-2.168-1.045-4.23-2.446-6.129-4.086-.557-.508-1.122-1.055-1.66-1.611-1.583-2.245-.806-5.391 1.132-6.907.106-.077.211-.163.327-.23.019-.019.038-.029.057-.039 4.086-2.59 9.19-3.117 16.125-3.463.182-.01.288-.154.403-.307.489-.671.988-1.803 1.189-2.705.067-.326.048-.652-.24-.815-.048-.029-.115-.057-.173-.077-.019-.019-.038-.038-.057-.048-.844-.489-2.35-1.448-4.269-2.12-.172-.067-.805-.182-1.631-.316 7.434-6.648 12.317-17.756 12.317-30.322 0-6.399-1.276-12.403-3.501-17.66 5.228 1.592 10.284 1.611 12.413 1.467 2.858-.182 7.29-.585 9.986-1.266.24-.057.479.019.642.163.154.153.23.364.192.604-.758 3.981-3.425 18.054-5.007 26.841-.988 5.506-1.583 12.605-1.823 17.008 0 .048.057.268.077.297.01.019 0 .038.01.057.691 1.113 1.784 3.856.988 7.559 0 .028.01.057 0 .077-.057.259-.086.508-.163.768 1.113-.029 2.35.144 2.974-.633.748-.931.547-8.893 1.276-15.809.23-2.216 1.122-7.578 1.122-7.607l1.631.949c1.545 1.103 3.175 2.101 4.883 2.993l.019.01c.009 0 .009.009.019.009.662.345 1.487.279 2.081-.23.786-.671.873-1.842.201-2.638-1.247-1.458-2.561-2.829-3.971-4.096l-2.149-1.851c0-.01-1.084-.768-1.391-.978l.336-1.545c.489.22 2.436 1.055 2.926 1.266 1.851.816 3.741 1.717 5.698 2.37 1.957.633 3.905 1.209 5.948 1.602.777.154 1.583-.211 1.976-.94.489-.902.154-2.024-.748-2.513l-.029-.019c-1.727-.931-3.52-1.794-5.257-2.686-.01-.009-.019-.009-.038-.019-.863-.432-1.727-.844-2.581-1.256-.873-.432-1.736-.863-2.6-1.343-.873-.479-2.743-1.477-3.616-1.976l.172-.527c2.082.441 5.171 1.17 7.271 1.563 2.091.383 4.307.882 6.494 1.026 2.196.144 4.345.201 6.58 0 .796-.067 1.477-.652 1.65-1.477.182-.873-.297-1.736-1.093-2.072-.125-.048-.249-.096-.384-.124l-.058-.02c-1.995-.412-4.057-.767-6.053-1.218-2.005-.413-3.933-.787-5.966-1.362-2.619-.729-4.384-1.267-6.984-2.082l.211-.681c1.573.057 1.918.057 3.482.077 2.273.029 4.537.019 6.811-.029l1.698-.028c.585-.01 1.18-.019 1.765-.048 1.18-.048 2.351-.154 3.501-.326 2.312-.374 4.547-.835 6.801-1.612.758-.269 1.285-1.007 1.247-1.852-.038-.652-.413-1.199-.93-1.506-.307-.182-.672-.279-1.055-.259h-.077c-2.12.115-4.317.269-6.456.298l-3.194.058-1.573-.029c-.566-.019-1.112-.038-1.66-.077-2.196-.144-4.393-.326-6.59-.537-1.362-.144-2.734-.297-4.086-.46 2.235-.23 4.317-.537 6.456-.892 2.379-.403 4.729-.863 7.079-1.372 2.331-.48 4.863-1.036 7.137-1.909 2.312-.902 4.509-1.871 6.667-3.204.689-.433 1.035-1.287.795-2.102zm-80.636 56.577c-.029 0-.058-.009-.096-.009-8.25-.038-15.54-5.583-19.953-14.025 2.053-3.463 6.302-11.032 6.302-11.032.403 1.554 2.772 11.809 2.772 11.809s-3.002 1.295-1.487 2.225c1.515.921 4.739.24 4.739.24s.815.739 1.698 1.353c1.055.796 2.235 1.381 3.521 1.726.489.182.815.298.815.298s-.297 1.419.163 2.158c.173.288.345.537.921.537.163 0 .336-.038.499-.096.498-.192.978-.586 1.256-.864.691-.719.94-1.228 1.458-1.918-.028-.029 0-.077.048-.125 1.228-.336 2.522-.787 3.75-2.322-2.993-1.17-5.535-3.904-6.513-8.432-.355-1.65-.556-3.444-.576-5.343-.019-1.976.144-4.057.537-6.197.009-.077.029-.144.038-.221 1.41-7.405 6.015-13.065 7.348-13.555-.413-.94-.24-3.358-3.463-4.691-.7-.288-2.858-.422-3.06-1.41 1.017-.691 1.794-1.986 1.976-3.549.259-2.091-.624-3.971-2.034-4.643.345-.768 1.17-1.823 1.17-1.823l-1.611-1.727-.326.173-1.755.94s.528 1.506.528 2.321c-1.391.47-2.418 1.554-2.657 3.501-.115.95.403 2.427 1.487 3.511.585.585.7 1.084.336 1.439-.787.796-2.437.605-3.281 1.832-.527.777-1.17 2.571-1.17 2.571-.403.806-2.734 6.408-3.885 8.384-.288.49-1.448 2.322-1.448 2.322s-.508.355-1.075.815c-.46.364-.959.806-1.266 1.209-.892 1.122-.528 3.156.01 4.01l-6.801 12.422c-.259-.566-.393-.883-.393-.883-1.909-4.662-2.993-10.014-2.993-15.703 0-17.401 10.188-31.675 23.003-32.692h2.974c1.41.115 2.792.393 4.125.815.71.23 1.391.489 2.072.787 9.736 4.326 16.778 16.624 16.778 31.09 0 18.076-10.974 32.772-24.481 32.772zm-2.513-35.483s-4.768 1.803-7.041 2.715l4.643-8.048c.019.038.221 1.132 2.11 1.918-.057.298.288 3.415.288 3.415z"/><polygon
        points="62.31 126.038 62.31 132.158 60.805 132.158 60.805 127.304 59.222 127.304 59.222 126.038"/><polygon
        points="65.764 134.23 64.459 133.789 67.759 127.391 64.133 127.391 64.133 126.038 69.275 126.038 69.275 127.094"/><path
        d="m130.447 131.065c.777-.595 3.098-1.986 3.098-2.821 0-.661-.47-.854-1.132-.854-.566 0-1.17.211-1.449.326l-.364-1.046c.298-.192 1.113-.47 1.871-.47 1.986 0 2.484 1.017 2.484 1.995 0 1.314-1.765 2.388-2.686 2.887h2.983v1.17h-4.806v-1.187z"/><path
        d="m139.263 132.254h-3.309v-1.18l2.657-4.71h2.091v4.71h1.122v1.18h-1.122v2.063h-1.439zm0-1.18v-3.194l-1.803 3.194z"/></g></svg>